{"title":"Cowboys.And.Aliens.2011.TS.x264.Feel-Free","uid":6576750,"size":1483437257,"categoryP":"video","categoryS":"movies","magnet":"?xt=urn:btih:0fc2aabc6d25cd13a921cd6e1f9e0797aeda7785&amp;dn=Cowboys.And.Aliens.2011.TS.x264.Feel-Free&amp;tr=udp%3A%2F%2Ftracker.openbittorrent.com%3A80&amp;tr=udp%3A%2F%2Fopen.demonii.com%3A1337&amp;tr=udp%3A%2F%2Ftracker.coppersurfer.tk%3A6969&amp;tr=udp%3A%2F%2Fexodus.desync.com%3A6969","seeders":0,"leechers":1,"uploader":".BONE.","files":9,"time":1312230890,"description":"\nGenre:Action | Sci-Fi | Thriller\nLanguage:English\nIMDb:http://www.imdb.com/title/tt0409847/\nSource:IMAGINE Thanks!\n\nFormat : MPEG-4\nFormat profile : Base Media\nCodec ID : isom\nFile size : 1.38 GiB\nDuration : 1h 53mn\nOverall bit rate : 1 735 Kbps\n\nVideo\nID : 1\nFormat : AVC\nFormat/Info : Advanced Video Codec\nFormat profile : &lt;a class=&quot;__cf_email__&quot; href=&quot;/cdn-cgi/l/email-protection&quot; data-cfemail=&quot;b7ffded0dff7fb839986&quot;&gt;[email&amp;#160;protected]&lt;/a&gt;&lt;script cf-hash='f9e31' type=&quot;text/javascript&quot;&gt;\n/* &lt;![CDATA[ */!function(){try{var t=&quot;currentScript&quot;in document?document.currentScript:function(){for(var t=document.getElementsByTagName(&quot;script&quot;),e=t.length;e--;)if(t[e].getAttribute(&quot;cf-hash&quot;))return t[e]}();if(t&amp;&amp;t.previousSibling){var e,r,n,i,c=t.previousSibling,a=c.getAttribute(&quot;data-cfemail&quot;);if(a){for(e=&quot;&quot;,r=parseInt(a.substr(0,2),16),n=2;a.length-n;n+=2)i=parseInt(a.substr(n,2),16)^r,e+=String.fromCharCode(i);e=document.createTextNode(e),c.parentNode.replaceChild(e,c)}}}catch(u){}}();/* ]]&gt; */&lt;/script&gt;\nFormat settings, CABAC : Yes\nFormat settings, ReFrames : 3 frames\nCodec ID : avc1\nCodec ID/Info : Advanced Video Coding\nDuration : 1h 53mn\nBit rate mode : Variable\nBit rate : 1 500 Kbps\nMaximum bit rate : 11.7 Mbps\nWidth : 720 pixels\nHeight : 304 pixels\nDisplay aspect ratio : 2.35:1\nFrame rate mode : Constant\nFrame rate : 29.970 fps\nColor space : YUV\nChroma subsampling : 4:2:0\nBit depth : 8 bits\nScan type : Progressive\nBits/(Pixel*Frame) : 0.229\nStream size : 1.20 GiB (87%)\nWriting library : x264\n\nAudio\nID : 2\nFormat : AAC\nFormat/Info : Advanced Audio Codec\nFormat version : Version 4\nFormat profile :LC\nFormat settings, SBR : No\nCodec ID : 40\nDuration : 1h 53mn\nBit rate mode : Variable\nBit rate : 224 Kbps\nMaximum bit rate : 335 Kbps\nChannel(s) : 2 channels\nChannel positions : Front: L R\nSampling rate : 44.1 KHz\nStream size : 182 MiB (13%)\n\n\nPlot:\nA spaceship arrives in Arizona, 1873, to take over the Earth, starting with the Wild West region. A posse of cowboys are all that stand in their way.\n &lt;a href=&quot;\nhttp://www.pix2links.com/images/81528844336775680737.png&quot; rel=&quot;nofollow&quot; target=&quot;_NEW&quot;&gt;\nhttp://www.pix2links.com/images/81528844336775680737.png&lt;/a&gt;\n &lt;a href=&quot;\nhttp://www.pix2links.com/images/41902198607928020857.png&quot; rel=&quot;nofollow&quot; target=&quot;_NEW&quot;&gt;\nhttp://www.pix2links.com/images/41902198607928020857.png&lt;/a&gt;\n &lt;a href=&quot;\nhttp://www.pix2links.com/images/78302839060515312275.png&quot; rel=&quot;nofollow&quot; target=&quot;_NEW&quot;&gt;\nhttp://www.pix2links.com/images/78302839060515312275.png&lt;/a&gt;\n &lt;a href=&quot;\nhttp://www.pix2links.com/images/02562749369651215880.png&quot; rel=&quot;nofollow&quot; target=&quot;_NEW&quot;&gt;\nhttp://www.pix2links.com/images/02562749369651215880.png&lt;/a&gt;\n &lt;a href=&quot;\nhttp://www.pix2links.com/images/60339870715847809876.png&quot; rel=&quot;nofollow&quot; target=&quot;_NEW&quot;&gt;\nhttp://www.pix2links.com/images/60339870715847809876.png&lt;/a&gt;\n","torrent":{"xt":"urn:btih:0fc2aabc6d25cd13a921cd6e1f9e0797aeda7785","amp;dn":"Cowboys.And.Aliens.2011.TS.x264.Feel-Free","amp;tr":["udp%3A%2F%2Ftracker.openbittorrent.com%3A80","udp%3A%2F%2Fopen.demonii.com%3A1337","udp%3A%2F%2Ftracker.coppersurfer.tk%3A6969","udp%3A%2F%2Fexodus.desync.com%3A6969"],"infoHash":"0fc2aabc6d25cd13a921cd6e1f9e0797aeda7785","infoHashBuffer":{"type":"Buffer","data":[15,194,170,188,109,37,205,19,169,33,205,110,31,158,7,151,174,218,119,133]},"announce":[],"urlList":[]}}